<svg xmlns="http://www.w3.org/2000/svg" xmlns:xlink="http://www.w3.org/1999/xlink" width="588" height="405.228" viewBox="0 0 588 405.228"><defs><style>.a{fill:#0341b7;opacity:0.28;}.b,.k,.u{fill:#fff;}.c{fill:url(#a);}.aa,.ae,.d,.u{opacity:0.2;}.aa,.e,.g{fill:#3067c2;}.f{fill:#f5f5f5;}.g,.k{opacity:0.5;}.h{fill:#ff5252;}.i{fill:#ff9800;}.j{fill:#69f0ae;}.l{fill:url(#j);}.ai,.ak,.m,.n{fill:none;}.aj,.ak,.m,.n{stroke:#3067c2;}.m,.n{stroke-miterlimit:10;}.n{stroke-dasharray:5 5;}.o{fill:url(#k);}.p{fill:url(#l);}.q{fill:url(#m);}.r{fill:url(#n);}.s{fill:#ca7070;}.t{fill:#00695c;}.v{fill:#263238;}.w{fill:url(#o);}.x{fill:url(#p);}.y{fill:#f6b9ad;}.z{fill:#fccc63;}.ab{fill:url(#u);}.ac{fill:#ff8181;}.ad{fill:#e0e0e0;}.af{fill:url(#z);}.ag{fill:#985454;}.ah{fill:#002d83;}.ai{stroke:#e0e0e0;}.aj{fill:#2699fb;}.al{fill:#ffcc65;}.am{fill:#ff482c;}.an{fill:#dce400;}.ao{fill:#00cae9;}</style><linearGradient id="a" x1="0.5" y1="1" x2="0.5" gradientUnits="objectBoundingBox"><stop offset="0" stop-color="gray" stop-opacity="0.251"/><stop offset="0.54" stop-color="gray" stop-opacity="0.122"/><stop offset="1" stop-color="gray" stop-opacity="0.102"/></linearGradient><linearGradient id="j" x1="0.516" y1="0.999" x2="0.516" y2="-0.001" xlink:href="#a"/><linearGradient id="k" x1="1.221" y1="1.356" x2="1.221" y2="0.356" xlink:href="#a"/><linearGradient id="l" x1="1.26" y1="1.627" x2="1.26" y2="0.627" xlink:href="#a"/><linearGradient id="m" x1="0.506" y1="0.964" x2="0.506" y2="0.023" xlink:href="#a"/><linearGradient id="n" xlink:href="#a"/><linearGradient id="o" x1="0.498" x2="0.498" y2="0.007" xlink:href="#a"/><linearGradient id="p" xlink:href="#a"/><linearGradient id="u" xlink:href="#a"/><linearGradient id="z" x1="0" y1="0.5" x2="1" y2="0.5" xlink:href="#a"/></defs><g transform="translate(-644.372 -211.751)"><path class="a" d="M275.279.013c151.749-.878,274.537,41.31,274.254,94.23S426,190.774,274.254,191.652-.282,150.342,0,97.422,123.53.891,275.279.013Z" transform="matrix(0.998, -0.07, 0.07, 0.998, 644.373, 425.779)"/><path class="a" d="M274.554.078C426.866,2.192,550.891,46.725,551.572,99.544s-122.24,93.924-274.551,91.809S.684,144.707,0,91.887,122.242-2.036,274.554.078Z" transform="translate(689.176 332.426) rotate(10)"/><g transform="translate(747.378 211.751)"><path class="b" d="M2,0H187.366a2,2,0,0,1,2,2V7.342a0,0,0,0,1,0,0H0a0,0,0,0,1,0,0V2A2,2,0,0,1,2,0Z" transform="translate(3.461 1.64)"/><path class="c" d="M2,0H193.794a2,2,0,0,1,2,2V240.292a0,0,0,0,1,0,0H0a0,0,0,0,1,0,0V2A2,2,0,0,1,2,0Z"/><rect class="b" width="189.366" height="227.189" transform="translate(3.461 8.982)"/><g class="d" transform="translate(8.9 17.799)"><rect class="e" width="73.67" height="4.45"/></g><rect class="f" width="73.67" height="4.45" transform="translate(61.309 36.093)"/><rect class="g" width="73.67" height="4.45" transform="translate(8.9 179.477)"/><rect class="c" width="24.721" height="5.439" transform="translate(92.458 178.983)"/><rect class="c" width="24.721" height="5.439" transform="translate(92.458 206.671)"/><rect class="c" width="24.721" height="5.439" transform="translate(142.89 206.671)"/><rect class="e" width="23.238" height="4.45" transform="translate(93.447 179.477)"/><rect class="e" width="23.238" height="4.45" transform="translate(93.447 207.165)"/><rect class="e" width="23.238" height="4.45" transform="translate(143.384 207.165)"/><rect class="f" width="73.67" height="4.45" transform="translate(8.9 193.321)"/><rect class="g" width="73.67" height="4.45" transform="translate(93.447 193.321)"/><rect class="f" width="73.67" height="4.45" transform="translate(93.447 221.009)"/><rect class="g" width="73.67" height="4.45" transform="translate(8.9 207.165)"/><rect class="f" width="73.67" height="4.45" transform="translate(8.9 221.009)"/><rect class="f" width="41.532" height="4.45" transform="translate(61.309 43.51)"/><rect class="f" width="14.338" height="4.45" transform="translate(110.258 43.51)"/><rect class="f" width="41.532" height="4.45" transform="translate(61.309 58.342)"/><rect class="f" width="14.338" height="4.45" transform="translate(110.258 58.342)"/><rect class="f" width="73.67" height="4.45" transform="translate(61.309 50.926)"/><g class="d" transform="translate(112.73 17.799)"><rect class="e" width="73.67" height="4.45"/></g><rect class="c" width="8.9" height="5.439" transform="translate(154.262 35.599)"/><rect class="c" width="8.9" height="5.439" transform="translate(154.262 43.015)"/><rect class="c" width="8.9" height="5.439" transform="translate(154.262 50.432)"/><rect class="h" width="7.911" height="4.45" transform="translate(154.756 36.093)"/><rect class="i" width="7.911" height="4.45" transform="translate(154.756 43.51)"/><rect class="j" width="7.911" height="4.45" transform="translate(154.756 50.926)"/><rect class="c" width="8.9" height="5.439" transform="translate(154.262 57.848)"/><rect class="e" width="7.911" height="4.45" transform="translate(154.756 58.342)"/><rect class="c" width="181.455" height="74.164" transform="translate(7.416 89.986)"/><rect class="g" width="177.5" height="70.209" transform="translate(8.9 91.469)"/><path class="k" d="M39.059,190.439H211.12V185H33.62v70.209h5.439Z" transform="translate(-24.72 -93.531)"/><rect class="l" width="182.939" height="75.153" transform="translate(8.334 101.906) rotate(-5.2)"/><rect class="b" width="177.5" height="70.209" transform="translate(11.466 103.601) rotate(-5.2)"/><path class="g" d="M216.865,359.742,213.8,320.8s15.822-16.811,47.762-4.351,47,3.664,52.192-4.751,32.138-17.8,40.869-3.723,19.2-1.75,19.2-1.75l3.54,38.9Z" transform="translate(-192.203 -198.761)"/><line class="m" x2="0.267" y2="2.957" transform="translate(40.746 113.55)"/><line class="n" x2="2.838" y2="31.179" transform="translate(41.532 122.173)"/><line class="m" x2="0.272" y2="2.952" transform="translate(44.627 156.185)"/><line class="m" x2="0.272" y2="2.952" transform="translate(71.148 118.376)"/><line class="n" x2="2.052" y2="22.501" transform="translate(72.004 127.76)"/><line class="m" x2="0.267" y2="2.957" transform="translate(74.347 153.475)"/><line class="m" x2="0.297" y2="2.952" transform="translate(102.169 123.656)"/><line class="n" x2="1.671" y2="16.86" transform="translate(102.945 131.429)"/><line class="m" x2="0.292" y2="2.957" transform="translate(104.859 150.697)"/><line class="m" x2="0.267" y2="2.957" transform="translate(130.05 106.223)"/><line class="n" x2="2.784" y2="30.551" transform="translate(130.821 114.732)"/><line class="m" x2="0.272" y2="2.957" transform="translate(133.857 148.056)"/><line class="m" x2="0.267" y2="2.952" transform="translate(150.173 102.144)"/><line class="n" x2="2.942" y2="32.301" transform="translate(150.974 110.969)"/><line class="m" x2="0.272" y2="2.952" transform="translate(154.183 146.207)"/><ellipse class="i" cx="2.472" cy="2.472" rx="2.472" ry="2.472" transform="translate(37.966 111.122) rotate(-5.2)"/><ellipse class="h" cx="2.472" cy="2.472" rx="2.472" ry="2.472" transform="translate(68.225 116.313) rotate(-5.2)"/><ellipse class="j" cx="2.472" cy="2.472" rx="2.472" ry="2.472" transform="translate(99.475 121.411) rotate(-5.2)"/><ellipse class="o" cx="3.461" cy="3.461" rx="3.461" ry="3.461" transform="translate(126.106 103.1) rotate(-5.2)"/><ellipse class="p" cx="3.461" cy="3.461" rx="3.461" ry="3.461" transform="translate(146.607 99.251) rotate(-5.2)"/><ellipse class="e" cx="2.472" cy="2.472" rx="2.472" ry="2.472" transform="translate(127.181 103.995) rotate(-5.2)"/><ellipse class="e" cx="2.472" cy="2.472" rx="2.472" ry="2.472" transform="translate(147.681 100.146) rotate(-5.2)"/><ellipse class="j" cx="2.472" cy="2.472" rx="2.472" ry="2.472" transform="translate(179.015 106.23) rotate(-5.2)"/><g class="d" transform="translate(186.716 157.561)"><path class="q" d="M547.76,413.177l.035.114C548.175,413.078,547.76,413.177,547.76,413.177Z" transform="translate(-547.76 -413.154)"/></g><g class="d" transform="translate(152.94 155.251)"><path class="r" d="M509.129,493.869l8.049-1.3-1.108-4.944h0v-.069h-.03l-5.706-26.2v-19.11a7.034,7.034,0,0,0-.04-.727c8.524-11.3,3.461-29.038,2.966-30.585-.089.044-.222.1-.41.178a10.418,10.418,0,0,0-.391-2.042s-2.472-1.572-3.822.45c-1.177,1.765-.3,2.843-.059,3.1l-.168.054a5.7,5.7,0,0,1,.781,1.948,4.309,4.309,0,0,0-.267-.495c-.312-.054-.494-.1-.494-.1l-.059-.054-.168.054c.855,1.251,1.157,3.461,1.117,6.081a8.586,8.586,0,0,0-.989-1.142,8.727,8.727,0,0,0-5.785-2.413h-.41a5.112,5.112,0,0,0-.672.045H501.3l-.282.039-.321.059-.232.049-.4.109-.148.044c-.168.054-.331.109-.494.173a8.524,8.524,0,0,1-1.7.613.825.825,0,0,0-.242.025h0a2.828,2.828,0,0,1-1.854-.529l-.178-.138a2.624,2.624,0,0,1-.193-.183,1.258,1.258,0,0,0-.084.539,1.657,1.657,0,0,0,.578,1.122,1.566,1.566,0,0,0,.307.208,1.325,1.325,0,0,0,.524.148h.143c-.114.054-.227.1-.346.148h-.025c-.129.045-.252.084-.386.119h0a4.291,4.291,0,0,1-1.978.03h0l-.213-.049c-.1-.03-.213-.059-.311-.094a2.381,2.381,0,0,0,.109.218l.04.064.089.138.054.069.1.124.059.064.124.124.049.045.183.153.064.045.133.094.089.054.119.069.1.049.124.054.1.044.138.049.173.049.129.035h.86a2.471,2.471,0,0,0,.742-.183l-.455.188h0l-.227.079-.232.084-.232.069-.237.069-.232.059-.247.059-.227.045-.262.045-.218.035-.282.035h-1.187a2.083,2.083,0,0,1,.747.4,1.979,1.979,0,0,0,.46.247,1.783,1.783,0,0,0,.223.049h1.107a3.233,3.233,0,0,1,1.281.41,2.3,2.3,0,0,1,.549.494c-.069.114-.138.222-.2.341s-.1.2-.153.3a6.147,6.147,0,0,0-.262.628,6.964,6.964,0,0,0-.425,2.4v.574a1.637,1.637,0,0,0,.04.356v.094q.03.218.079.43v.084q.039.178.089.351l.03.1a6.943,6.943,0,0,0,.3.821l.035.079q.084.183.173.356v.035q.109.2.227.391v.03q.109.178.232.346l.03.04a7.021,7.021,0,0,0,.578.7h0a6.993,6.993,0,0,0,1.864,1.4,3.086,3.086,0,0,0-.055.321h0a3.151,3.151,0,0,0,0,.336v2.611q-.222.119-.435.252c-6.2-2.813-15.421-22.744-15.421-22.744h-.222c.9-.672,0-3.6,0-3.6a4.223,4.223,0,0,0-1.73-.574h-.8l-.1.03H481.2l-.148.054h0l-.138.064-.049.025-.094.054-.064.3-.089.059-.054.044-.084.069-.054.049-.084.079-.05.054-.084.1-.04.049-.124.168c-1.35,2.022,0,3.149,0,3.149a20.148,20.148,0,0,0-.124,2.349c-.1,14.566,15.491,25.854,16.286,26.417a29.9,29.9,0,0,0,.035,19.031.319.319,0,0,0,.04.069,29.211,29.211,0,0,0-8.761,27.629l.064.3h.143a1.981,1.981,0,0,1-.054.2,2.28,2.28,0,0,1-.143.346,2.684,2.684,0,0,1-.361.529h0c-.153.178-.331.356-.519.539l-.2.188c-.786.752-1.582,1.483-.989,1.78h8.509v-3.713h.148s-.059-.114-.148-.336v-.04h-.03c-.445-1.147-1.483-4.7.178-10.165,2.022-6.749,9.889-10.121,9.889-10.121l.143.494h-.03l6.171,20.272a.824.824,0,0,1-.025.242,3.3,3.3,0,0,1-.133.564,3.586,3.586,0,0,1-.168.415c-.381.786-1.038,1.711-1.325,2.4a2.311,2.311,0,0,0-.1.292.9.9,0,0,0-.035.346.4.4,0,0,0,.262.331h.114l.237-.04Zm-2.383-57.714q-.232-.129-.495-.242V433.46a3.115,3.115,0,0,0-.054-.559,6.975,6.975,0,0,0,1.483-.954c-.3,1.513-.628,2.962-.929,4.208Z" transform="translate(-479.447 -408.482)"/></g><path class="s" d="M479.706,418.351s-1.483-1.246,0-3.491,4.237-.494,4.237-.494.989,3.239,0,3.985S479.706,418.351,479.706,418.351Z" transform="translate(-326.304 -255.877)"/><path class="t" d="M501.671,591.75H494.8a2.255,2.255,0,0,1-.648,1.765c-.925,1.068-2.784,2.359-1.908,2.8h9.424Z" transform="translate(-332.863 -345.886)"/><path class="u" d="M494.66,593.515a2.255,2.255,0,0,0,.648-1.765h-.494a2.254,2.254,0,0,1-.648,1.765c-.924,1.068-2.784,2.358-1.908,2.8h.494C491.876,595.874,493.735,594.588,494.66,593.515Z" transform="translate(-332.868 -345.886)"/><path class="t" d="M552.467,588.89l-6.428,1.043a3.273,3.273,0,0,1-.292,2.264c-.7,1.483-2.279,3.333-1.33,3.733l9.305-1.483Z" transform="translate(-359.204 -344.44)"/><path class="t" d="M545.929,416.922s7.352,23.194-4.979,36.034l-3.56-2.724s7.288-25.315,3.209-31.258C547.8,416.576,545.929,416.922,545.929,416.922Z" transform="translate(-355.801 -257.489)"/><path class="s" d="M543.706,416.341s-1.483-1.246,0-3.491,4.237-.494,4.237-.494.989,3.238,0,3.985S543.706,416.341,543.706,416.341Z" transform="translate(-358.661 -254.861)"/><path class="u" d="M546.242,592.177a3.274,3.274,0,0,0,.292-2.269l5.933-.989v-.079l-6.428,1.068a3.273,3.273,0,0,1-.292,2.264c-.7,1.483-2.279,3.332-1.33,3.733l.391-.064C544.1,595.347,545.569,593.572,546.242,592.177Z" transform="translate(-359.204 -344.415)"/><rect class="s" width="6.976" height="10.338" rx="3.488" transform="translate(175.453 181.04)"/><path class="u" d="M537.637,455.3s7.2-25,3.278-31.149c-.346-.064-.569-.114-.569-.114l-.064-.059-.183.059c4.079,5.933-3.209,31.258-3.209,31.258l3.56,2.724.311-.336Z" transform="translate(-355.548 -261.066)"/><ellipse class="s" cx="7.723" cy="7.723" rx="7.723" ry="7.723" transform="translate(171.344 169.208)"/><path class="u" d="M521.641,455.4v-3.362a3.463,3.463,0,0,1,.079-.732,7.723,7.723,0,0,1,3.1-14.581h-.435a7.723,7.723,0,0,0-3.535,14.591,3.461,3.461,0,0,0-.079.732v3.362a3.461,3.461,0,0,0,3.926,3.461,3.5,3.5,0,0,1-3.051-3.471Z" transform="translate(-345.317 -267.512)"/><path class="t" d="M530.611,500.629s-14.9,1.681-15.446,0a32.932,32.932,0,0,1,0-21.176,7.723,7.723,0,0,1,7.723-7.723h0a7.723,7.723,0,0,1,7.723,7.723Z" transform="translate(-343.697 -285.207)"/><path class="v" d="M521.609,530.18l6.729,30.9h-6.729l-6.976-22.922s-8.722,3.738-10.961,11.214,0,11.708,0,11.708h-7.229l-.074-.336a32.138,32.138,0,0,1,9.79-30.561h0" transform="translate(-334.695 -314.758)"/><path class="u" d="M515.909,500.644a32.932,32.932,0,0,1,0-21.176,7.723,7.723,0,0,1,7.225-7.708h-.5a7.723,7.723,0,0,0-7.723,7.723,32.937,32.937,0,0,0,0,21.176c.2.6,2.235.771,4.766.747C517.625,501.361,516.067,501.164,515.909,500.644Z" transform="translate(-343.571 -285.222)"/><path class="t" d="M498.185,454.733s-19.93-13.953-17.938-31.643h4.485s10.709,23.194,17.572,25.418S498.185,454.733,498.185,454.733Z" transform="translate(-326.84 -260.616)"/><g class="d" transform="translate(160.958 215.546)"><path class="b" d="M534.31,546.98l6.848,22.5h.989L535.17,546.56S534.849,546.7,534.31,546.98Z" transform="translate(-515.202 -538.585)"/><path class="b" d="M507.167,530.43h-.989a32.138,32.138,0,0,0-9.79,30.561l.074.336h.989l-.074-.336A32.138,32.138,0,0,1,507.167,530.43Z" transform="translate(-495.663 -530.43)"/></g><path class="u" d="M481,423.6h-.747c-1.978,17.691,17.938,31.643,17.938,31.643l.494-.188C496.372,453.35,479.131,440.114,481,423.6Z" transform="translate(-326.842 -260.874)"/><path class="v" d="M514.481,437.47a12.786,12.786,0,0,1,.9,3.11,8.247,8.247,0,0,0,3.535,5.439,7.847,7.847,0,0,0,3.461.944,6.608,6.608,0,0,0,5.132-1.547,6.358,6.358,0,0,0,1.567-3.159,10.694,10.694,0,0,0-2.813-9.829,9.488,9.488,0,0,0-9.888-2.072,9.444,9.444,0,0,1-1.874.682,3.12,3.12,0,0,1-2.734-.91,1.726,1.726,0,0,0,1.666,2.235,4.811,4.811,0,0,1-3.688.2,3.13,3.13,0,0,0,3.955,1.577,10.541,10.541,0,0,1-4.45.91c.321,0,.949.593,1.34.712a8.5,8.5,0,0,0,1.483.1,2.878,2.878,0,0,1,2.408,1.607Z" transform="translate(-341.574 -263.99)"/><g class="d" transform="translate(167.656 165.767)"><path class="b" d="M515.88,432.715a4.761,4.761,0,0,1-1.829.47,4.794,4.794,0,0,0,2.329-.47,1.745,1.745,0,0,1-1.75-1.884,2.947,2.947,0,0,1-.415-.351,1.726,1.726,0,0,0,1.666,2.235Z" transform="translate(-511.657 -430.12)"/><path class="b" d="M520.131,431.036a9.451,9.451,0,0,0,1.874-.682,8.6,8.6,0,0,1,2.967-.6,8.685,8.685,0,0,0-3.461.6,9.449,9.449,0,0,1-1.874.682.823.823,0,0,0-.267.03A2.971,2.971,0,0,0,520.131,431.036Z" transform="translate(-514.347 -429.751)"/><path class="b" d="M511.044,440.242c-.391-.114-1.018-.7-1.34-.712a10.542,10.542,0,0,0,4.45-.91,2.759,2.759,0,0,1-.989.208,10.545,10.545,0,0,1-3.955.7c.321,0,.949.593,1.34.712a3.323,3.323,0,0,0,1.038.084A2.168,2.168,0,0,1,511.044,440.242Z" transform="translate(-509.21 -434.235)"/><path class="b" d="M525.505,453.206a7.846,7.846,0,0,1-3.461-.944,8.365,8.365,0,0,1-3.535-5.439,12.782,12.782,0,0,0-.9-3.11,2.877,2.877,0,0,0-2.438-1.6,4.979,4.979,0,0,0-.742,0h.242a2.878,2.878,0,0,1,2.438,1.6,12.779,12.779,0,0,1,.9,3.11,8.247,8.247,0,0,0,3.535,5.439,7.845,7.845,0,0,0,3.461.944h.5Z" transform="translate(-511.849 -435.995)"/><path class="b" d="M513.4,437.18a3.154,3.154,0,0,1-2.531-1.617,4.594,4.594,0,0,1-.578-.163A3.154,3.154,0,0,0,513.4,437.18Z" transform="translate(-509.756 -432.607)"/></g><path class="u" d="M480.21,418.346s-1.483-1.246,0-3.491a2.388,2.388,0,0,1,1.849-1.132,2.423,2.423,0,0,0-2.344,1.132c-1.483,2.245,0,3.491,0,3.491a13.5,13.5,0,0,0,2.932.326A14.745,14.745,0,0,1,480.21,418.346Z" transform="translate(-326.31 -255.872)"/><g class="d" transform="translate(10.359 162.438)"><path class="w" d="M191.269,423.172l.04-.134S190.8,422.94,191.269,423.172Z" transform="translate(-191.072 -423.018)"/></g><g class="d" transform="translate(0.089 159.645)"><path class="x" d="M227.357,428.6a3.262,3.262,0,0,0-.178-.46c0-.05-.049-.089-.074-.134a2.781,2.781,0,0,0-.148-.257l-.1-.129a2.475,2.475,0,0,0-.163-.193l-.114-.114q-.089-.082-.178-.148l-.124-.089-.2-.119-.124-.064-.223-.094-.114-.044a2.731,2.731,0,0,0-.321-.089h0a5.107,5.107,0,0,0-2.171.059s-2.072,3.056-1.276,4.153l-.262-.079s-15.392,17.176-24.074,20.366q-.331-.228-.687-.425v-3.214a3.784,3.784,0,0,0,0-.405h0a3.765,3.765,0,0,0-.064-.381l.064-.035.257-.143.371-.227.237-.153a4.931,4.931,0,0,0,.494-.386l.193-.168q.178-.148.341-.311l.2-.193q.208-.213.4-.435l.138-.168q.178-.222.341-.455l.138-.208q.148-.228.282-.465l.089-.153a6.772,6.772,0,0,0,.3-.633l.079-.193q.1-.262.193-.529a.923.923,0,0,1,.059-.188c.069-.232.134-.465.183-.707a.294.294,0,0,1,.025-.143q.059-.3.094-.613v-.208c0-.252.04-.494.04-.766a8.406,8.406,0,0,0-1.87-5.286c.658-1.028,1.088-1.636,1.088-1.636-.4-.272-.786-.519-1.172-.761l-.376-.222c-.257-.153-.494-.307-.771-.445l-.43-.227c-.232-.124-.46-.242-.687-.351l-.44-.2-.658-.287-.43-.173c-.218-.084-.435-.163-.648-.238l-.405-.138c-.222-.069-.445-.134-.663-.193l-.361-.1c-.247-.059-.494-.109-.737-.158l-.262-.054c-.331-.059-.658-.1-.989-.134h0a11.722,11.722,0,0,0-5.933.91,10.949,10.949,0,0,1,1.325-5.518l-.2-.069-.069.069s-.242.054-.623.124a5.164,5.164,0,0,0-.321.6,6.876,6.876,0,0,1,.944-2.354l-.2-.069c.292-.3,1.35-1.6-.069-3.733-1.632-2.443-4.618-.544-4.618-.544a12.636,12.636,0,0,0-.465,2.472c-.227-.094-.391-.163-.494-.218a61.556,61.556,0,0,0-2.319,15.505c-5.384,7.644-7.609,18.927-8.044,21.359h0l-.035.193h0c-.03.178-.045.272-.045.272l14,.326V480.29l-10.19,21.552s3.876.124,9.711.87l-1.612,11.525h0l-.539,3.234h9.7c1.078-2.156-4.311-3.234-4.311-3.234h-.119l2.1-10.754q1.394.232,2.868.495a28.11,28.11,0,0,0,4.366.494h0a23.2,23.2,0,0,0,3.634-.158,25.3,25.3,0,0,1-.4,9.889h-.054l-.539,3.234h9.7c.939-1.879-3.036-2.942-4.069-3.179l.045-.316a54.1,54.1,0,0,0,.381-10.976,13.288,13.288,0,0,0,3.461-2.062h0l.133-.119h0l.04-.04-7.224-20.271c1.35-5.735-3.347-11.758-.841-14.769s.989-6.853.692-7.51c6.784-2.967,20.494-10.383,24.341-23.238a24.3,24.3,0,0,0,.687-2.754S228.2,431.416,227.357,428.6Z" transform="translate(-170.3 -417.368)"/></g><path class="h" d="M192.356,430.922s-7.352,23.194,4.979,36.034l3.56-2.724s-7.288-25.315-3.209-31.258C190.487,430.576,192.356,430.922,192.356,430.922Z" transform="translate(-180.262 -264.567)"/><path class="y" d="M200.078,430.341s1.483-1.246,0-3.491-4.237-.494-4.237-.494-.989,3.238,0,3.985S200.078,430.341,200.078,430.341Z" transform="translate(-182.901 -261.939)"/><rect class="y" width="6.976" height="10.338" rx="3.488" transform="translate(26.768 198.3) rotate(180)"/><path class="u" d="M206.293,469.3s-7.2-25-3.278-31.149c.346-.064.569-.114.569-.114l.064-.059.183.059c-4.079,5.933,3.209,31.258,3.209,31.258l-3.56,2.724-.312-.336Z" transform="translate(-186.16 -268.144)"/><ellipse class="y" cx="7.723" cy="7.723" rx="7.723" ry="7.723" transform="translate(15.431 176.13)"/><path class="u" d="M219.254,469.4v-3.362a3.465,3.465,0,0,0-.079-.732,7.723,7.723,0,0,0-3.1-14.581h.435a7.723,7.723,0,0,1,3.535,14.591,3.455,3.455,0,0,1,.079.732v3.362a3.461,3.461,0,0,1-3.926,3.461A3.5,3.5,0,0,0,219.254,469.4Z" transform="translate(-193.356 -274.59)"/><path class="h" d="M201.08,514.629s14.9,1.681,15.446,0c1.78-5.439-2.967-11.317-.593-14.19,2.472-2.967.593-6.986.593-6.986a7.723,7.723,0,0,0-7.723-7.723h0a7.723,7.723,0,0,0-7.723,7.723Z" transform="translate(-185.772 -292.285)"/><path class="u" d="M223.364,500.439c2.472-2.967.593-6.986.593-6.986a7.723,7.723,0,0,0-7.723-7.723,3.3,3.3,0,0,0-.494.025,7.718,7.718,0,0,1,7.229,7.7s1.879,4.02-.593,6.986c-2.393,2.873,2.373,8.746.593,14.19-.168.519-1.706.717-3.748.747,2.517.025,4.544-.143,4.737-.747C225.757,509.181,220.971,503.312,223.364,500.439Z" transform="translate(-193.184 -292.285)"/><path class="y" d="M211.37,543.18h0c5.439,7.708,7.847,19.357,6.289,30.56l-.045.336h-4.643s1.439-4.237,0-11.708a18.486,18.486,0,0,0-7.041-11.214l-4.48,22.922H197.13l4.321-30.9Z" transform="translate(-183.775 -321.33)"/><path class="y" d="M274.576,448s1.795-.751,1.023-3.337-3.906-1.716-3.906-1.716-1.9,2.8-1.167,3.812S274.576,448,274.576,448Z" transform="translate(-220.797 -270.584)"/><path class="h" d="M220.507,476.963s23.144-7.5,26.422-25l-4.287-1.315S225.61,469.666,218.416,469.8,220.507,476.963,220.507,476.963Z" transform="translate(-193.155 -274.55)"/><path class="u" d="M250.586,453.35l.717.218c-3.278,17.5-26.422,25-26.422,25l-.41-.321C227.2,477.3,247.53,469.671,250.586,453.35Z" transform="translate(-197.598 -275.915)"/><g class="d" transform="translate(16.682 221.85)"><path class="b" d="M208.34,559.31l-4.48,22.922h.989l4.351-22.249a10.7,10.7,0,0,0-.86-.672Z" transform="translate(-203.86 -551.335)"/><path class="b" d="M224.919,543.18h-.989c5.439,7.708,7.847,19.357,6.289,30.56l-.044.336h.989l.045-.336C232.765,562.537,230.367,550.888,224.919,543.18Z" transform="translate(-214.007 -543.18)"/></g><path class="u" d="M275.443,447.924s1.795-.752,1.024-3.337a2.389,2.389,0,0,0-1.434-1.627,2.423,2.423,0,0,1,1.908,1.77c.771,2.581-1.023,3.337-1.023,3.337a13.5,13.5,0,0,1-2.9-.544A14.754,14.754,0,0,0,275.443,447.924Z" transform="translate(-222.143 -270.662)"/><path class="v" d="M191.474,542.48l-9.394,19.777a116.222,116.222,0,0,1,16.316,1.978c10.383,1.978,15.327-2.966,15.327-2.966l-6.7-18.788Z" transform="translate(-176.167 -320.977)"/><path class="h" d="M201.064,605.48s4.944.989,3.955,2.967h-8.9l.494-2.967Z" transform="translate(-183.265 -352.828)"/><path class="h" d="M233.064,605.48s4.944.989,3.955,2.967h-8.9l.494-2.967Z" transform="translate(-199.443 -352.828)"/><path class="z" d="M202.808,449.972s-11.866,16.811-6.428,23.732l-21.26-.494S181.053,435.14,202.808,449.972Z" transform="translate(-172.648 -272.473)"/><path class="u" d="M202.808,450.032a18.011,18.011,0,0,0-8.282-3.372,20.935,20.935,0,0,1,5.81,2.878s-11.866,16.811-6.428,23.733l-18.714-.435c-.049.282-.074.435-.074.435l21.26.494C190.942,466.843,202.808,450.032,202.808,450.032Z" transform="translate(-172.648 -272.533)"/><path class="u" d="M227.853,542.48H226.37l6.7,18.788s-3.194,3.189-9.839,3.417c7.649.247,11.322-3.417,11.322-3.417Z" transform="translate(-196.971 -320.977)"/><path class="u" d="M205.109,605.48h-.989s4.944.989,3.955,2.967h.989C210.053,606.469,205.109,605.48,205.109,605.48Z" transform="translate(-187.309 -352.828)"/><path class="u" d="M237.109,605.48h-.989s4.944.989,3.955,2.967h.989C242.053,606.469,237.109,605.48,237.109,605.48Z" transform="translate(-203.488 -352.828)"/><path class="b" d="M2,0H220.723a2,2,0,0,1,2,2V8.636a0,0,0,0,1,0,0H0a0,0,0,0,1,0,0V2A2,2,0,0,1,2,0Z" transform="translate(213.6 51.165)"/><path class="c" d="M2,0H229.446a2,2,0,0,1,2,2V288.435a0,0,0,0,1,0,0H0a0,0,0,0,1,0,0V2A2,2,0,0,1,2,0Z" transform="translate(209.168 49.062)"/><rect class="b" width="222.723" height="267.21" transform="translate(213.6 59.802)"/><rect class="aa" width="195.392" height="5.234" transform="translate(227.556 72.108)"/><rect class="c" width="84.321" height="89.554" transform="translate(226.393 94.787)"/><rect class="b" width="80.832" height="83.739" transform="translate(228.138 97.695)"/><rect class="c" width="84.321" height="89.554" transform="translate(338.627 139.565)"/><rect class="b" width="80.832" height="83.739" transform="translate(340.371 142.472)"/><rect class="c" width="198.299" height="61.641" transform="translate(228.138 250.054)"/><rect class="g" width="190.739" height="55.245" transform="translate(232.208 254.125)"/><path class="k" d="M537.272,520.914H723.359V515.68H532.62v55.245h4.652Z" transform="translate(-300.412 -261.555)"/><path class="ab" d="M750.473,363.684a36.054,36.054,0,1,0,8.723,23.523A36.054,36.054,0,0,0,750.473,363.684Zm-14.538,45.051a14.245,14.245,0,1,1,.017,0Z" transform="translate(-454.896 -247.642)"/><path class="h" d="M767.176,372.92l7.938-6.833A34.223,34.223,0,0,0,749.12,354.16v10.467A23.79,23.79,0,0,1,767.176,372.92Z" transform="translate(-480.857 -248.905)"/><path class="j" d="M738.93,451.744a23.692,23.692,0,0,1-9.839-2.134l-4.321,9.543a34.31,34.31,0,0,0,31.687-1.745l-5.35-9.008A23.691,23.691,0,0,1,738.93,451.744Z" transform="translate(-470.667 -288.343)"/><path class="i" d="M792.193,397.043a34.165,34.165,0,0,0-8.316-22.383l-7.938,6.833a23.8,23.8,0,0,1-5.879,36.054l5.35,9.008A34.309,34.309,0,0,0,792.193,397.043Z" transform="translate(-489.62 -257.484)"/><path class="e" d="M700.586,388.46a23.843,23.843,0,0,1,23.843-23.842V354.15a34.31,34.31,0,0,0-14.16,65.561l4.321-9.543A23.843,23.843,0,0,1,700.586,388.46Z" transform="translate(-456.166 -248.901)"/><rect class="c" width="61.641" height="10.467" transform="translate(351.42 154.684)"/><circle class="ac" cx="1.468" cy="1.468" r="1.468" transform="translate(7.696 3.842)"/><circle class="ad" cx="1.468" cy="1.468" r="1.468" transform="translate(13.034 3.842)"/><circle class="ad" cx="1.468" cy="1.468" r="1.468" transform="translate(18.372 3.842)"/><rect class="e" width="60.478" height="9.304" transform="translate(352.002 155.266)"/><rect class="h" width="44.196" height="9.304" transform="translate(352.002 170.967)"/><rect class="j" width="30.239" height="9.304" transform="translate(352.002 186.668)"/><rect class="i" width="54.663" height="9.304" transform="translate(352.002 202.369)"/><rect class="f" width="86.647" height="5.234" transform="translate(228.138 198.298)"/><rect class="f" width="48.848" height="5.234" transform="translate(228.138 207.021)"/><rect class="f" width="16.864" height="5.234" transform="translate(285.708 207.021)"/><rect class="f" width="16.864" height="5.234" transform="translate(285.708 226.212)"/><rect class="f" width="48.848" height="5.234" transform="translate(228.138 224.467)"/><rect class="f" width="86.647" height="5.234" transform="translate(228.138 215.744)"/><rect class="f" width="86.647" height="5.234" transform="translate(337.464 95.369)"/><rect class="f" width="48.848" height="5.234" transform="translate(337.464 104.092)"/><rect class="f" width="16.864" height="5.234" transform="translate(395.034 104.092)"/><rect class="f" width="16.864" height="5.234" transform="translate(395.034 123.282)"/><rect class="f" width="48.848" height="5.234" transform="translate(337.464 121.537)"/><rect class="f" width="86.647" height="5.234" transform="translate(337.464 112.815)"/><circle class="c" cx="6.397" cy="6.397" r="6.397" transform="translate(358.399 348.331)"/><circle class="ac" cx="1.727" cy="1.727" r="1.727" transform="translate(219.543 53.756)"/><circle class="ad" cx="1.727" cy="1.727" r="1.727" transform="translate(226.435 53.756)"/><circle class="ad" cx="1.727" cy="1.727" r="1.727" transform="translate(233.328 53.756)"/><g transform="translate(130.297 268.124)"><circle class="h" cx="4.652" cy="4.652" r="4.652" transform="translate(203.11 98.29)"/><rect class="c" width="164.397" height="70.364" transform="translate(60.356 31.997)"/><rect class="b" width="149.151" height="90.149" transform="translate(66.171 0)"/><rect class="h" width="152.864" height="8.141" transform="translate(66.171 90.149)"/><circle class="c" cx="6.397" cy="6.397" r="6.397" transform="translate(67.916 96.546)"/><circle class="h" cx="4.652" cy="4.652" r="4.652" transform="translate(69.661 98.29)"/><rect class="h" width="4.652" height="61.06" transform="translate(61.519 37.231)"/><rect class="ae" width="4.652" height="61.06" transform="translate(61.519 37.231)"/><path class="af" d="M552.81,655.324v-.471a.28.28,0,0,0-.035-.18,1.965,1.965,0,0,1-.07-.256c-.029-.081-.035-.11-.058-.169s-.07-.163-.1-.244l-.07-.145c-.046-.081-.1-.163-.151-.238l-.076-.111a3.82,3.82,0,0,0-.244-.3h0a5.593,5.593,0,0,0-1.622-1.2,4.682,4.682,0,0,0,1.041-1.791,3.728,3.728,0,0,0,.14-.547V649.5a3.161,3.161,0,0,0,.029-.337v-.471a.279.279,0,0,0-.035-.18,1.955,1.955,0,0,1-.07-.256c-.029-.081-.035-.11-.058-.169s-.07-.163-.1-.244l-.07-.145c-.047-.082-.1-.163-.151-.238l-.076-.111q-.114-.157-.244-.3h0a5.855,5.855,0,0,0-2.064-1.4s-3.693,1.367-3.937,2.867c-2.71.581-18.5,3.867-29.349,3.605l-.081-.215a9.647,9.647,0,0,0-5.135-8.531v-3.652a4.382,4.382,0,0,0,0-.465h0a4.339,4.339,0,0,0-.07-.442l.07-.041.3-.163.43-.262.273-.18q.3-.21.582-.442l.221-.192c.134-.116.262-.233.39-.355l.227-.221q.238-.244.454-.5l.157-.2q.2-.256.39-.523l.157-.238q.168-.262.326-.535l.1-.174c.128-.233.244-.477.349-.721l.087-.221q.122-.3.221-.582l.07-.215c.081-.267.151-.535.209-.808a.324.324,0,0,1,.029-.163q.064-.349.1-.7v-.238c0-.291.046-.582.046-.878a9.6,9.6,0,0,0-1.238-4.715c.622-.152,1-.274.953-.332-.238-.32-.477-.622-.727-.913l-.238-.273c-.174-.2-.343-.384-.518-.582l-.279-.285c-.174-.174-.349-.337-.523-.494l-.273-.244q-.331-.279-.663-.541l-.145-.116c-.268-.2-.535-.384-.808-.582l-.3-.186c-.174-.111-.355-.215-.535-.308l-.36-.186-.5-.238-.366-.163c-.174-.076-.355-.139-.535-.2l-.331-.122c-.268-.087-.535-.169-.8-.239l-.413-.093-.448-.093-.448-.07-.413-.047-.459-.041H504.1q-.378,0-.756.035h0c-5.949.489-11.159,5.681-11.159,13.956v6.827h9.3v3.105a9.648,9.648,0,0,0-5.606,8.752v26.465l-7.9,36.281h-.1l-1.553,6.926,11.142,1.8h0l.483.076c1.163-.5-.785-2.844-1.663-4.652a4.985,4.985,0,0,1-.233-.581,4.408,4.408,0,0,1-.221-1.128l8.56-28.082h-.041l.2-.657s10.9,4.652,13.7,14.009c2.274,7.56.861,12.479.244,14.073h-.041v.093c-.122.3-.209.471-.209.471h.209v5.135h11.781c1.093-.553-1.227-2.163-2.384-3.489a3.3,3.3,0,0,1-.768-1.483h.2l.093-.419a40.434,40.434,0,0,0-12.13-38.247.45.45,0,0,0,.052-.1,43.3,43.3,0,0,0,2.041-10.5c9.008.86,20.993.244,29.954-6.7a27.942,27.942,0,0,0,2.448-2.082c.774-.058,2.129-.488,2.879-2.675a3.7,3.7,0,0,0,.14-.547V655.7A3.162,3.162,0,0,0,552.81,655.324Z" transform="translate(-486.33 -611.604)"/><path class="e" d="M518.63,691.738s27.273,8.671,42.381-5.815l-3.2-4.193s-29.309,6.531-36.293,1.745S518.63,691.738,518.63,691.738Z" transform="translate(-499.346 -637.771)"/><path class="u" d="M560.811,688l.535.7c-15.12,14.492-42.381,5.815-42.381,5.815s-.07-.221-.174-.582C522.041,694.9,546.715,701.538,560.811,688Z" transform="translate(-499.914 -640.395)"/><path class="ag" d="M589.194,684.034s2.233.506,3.262-2.489-2.559-4.315-2.559-4.315-3.739,1.378-3.728,2.844S589.194,684.034,589.194,684.034Z" transform="translate(-528.111 -635.888)"/><path class="u" d="M589.291,684.5s2.233.506,3.262-2.489a2.81,2.81,0,0,0-.262-2.535,2.849,2.849,0,0,1,.616,3c-1.029,3-3.262,2.489-3.262,2.489a15.886,15.886,0,0,1-2.4-2.506A17.342,17.342,0,0,0,589.291,684.5Z" transform="translate(-528.563 -636.83)"/><path class="e" d="M541.7,781.75h8.078a2.651,2.651,0,0,0,.762,2.076c1.087,1.256,3.274,2.774,2.245,3.291H541.7Z" transform="translate(-509.501 -679.627)"/><path class="u" d="M555.336,783.826a2.652,2.652,0,0,1-.762-2.076h.581a2.652,2.652,0,0,0,.762,2.076c1.088,1.256,3.274,2.774,2.245,3.291h-.582C558.61,786.6,556.423,785.088,555.336,783.826Z" transform="translate(-514.885 -679.627)"/><path class="e" d="M491.167,778.89l7.56,1.239a3.849,3.849,0,0,0,.343,2.663c.826,1.745,2.681,3.919,1.564,4.39l-10.944-1.744Z" transform="translate(-487.736 -678.431)"/><path class="u" d="M499.541,782.77a3.85,3.85,0,0,1-.343-2.663l-7.007-1.163v-.093l7.56,1.239a3.849,3.849,0,0,0,.343,2.663c.826,1.744,2.681,3.919,1.564,4.39l-.459-.076C502.059,786.5,500.331,784.409,499.541,782.77Z" transform="translate(-488.782 -678.414)"/><rect class="ag" width="8.205" height="12.16" rx="4.103" transform="translate(24.383 38.039) rotate(180)"/><circle class="ag" cx="9.083" cy="9.083" r="9.083" transform="translate(11.049 11.963)"/><path class="u" d="M523.814,648.694V644.74a4.066,4.066,0,0,0-.093-.86,9.083,9.083,0,0,0-3.64-17.149h.512a9.083,9.083,0,0,1,4.158,17.161,4.068,4.068,0,0,1,.093.861v3.954a4.07,4.07,0,0,1-4.617,4.07A4.117,4.117,0,0,0,523.814,648.694Z" transform="translate(-500.454 -614.755)"/><path class="ah" d="M505.08,695.72s17.521,1.977,18.167,0a38.734,38.734,0,0,0,0-24.906,9.083,9.083,0,0,0-9.083-9.083h0a9.083,9.083,0,0,0-9.083,9.083Z" transform="translate(-494.177 -629.402)"/><path class="v" d="M499.385,720.18l-7.915,36.339h7.915l8.205-26.959s10.258,4.4,12.892,13.189,0,13.77,0,13.77H529l.087-.4a37.8,37.8,0,0,0-11.514-35.944h0" transform="translate(-488.481 -653.862)"/><path class="u" d="M528.445,695.733a38.734,38.734,0,0,0,0-24.907,9.084,9.084,0,0,0-8.5-9.066h.583a9.083,9.083,0,0,1,9.083,9.083,38.737,38.737,0,0,1,0,24.907c-.233.709-2.629.907-5.606.878C526.427,696.576,528.247,696.343,528.445,695.733Z" transform="translate(-500.398 -629.414)"/><g class="d" transform="translate(9.741 66.464)"><path class="b" d="M512.3,737.054l-8.054,26.465H503.08l8.205-26.959S511.663,736.723,512.3,737.054Z" transform="translate(-503.08 -727.18)"/><path class="b" d="M534.31,720.43h1.163a37.8,37.8,0,0,1,11.514,35.944l-.087.4h-1.163l.087-.4A37.8,37.8,0,0,0,534.31,720.43Z" transform="translate(-516.149 -720.43)"/></g><path class="e" d="M516.63,681.738s27.273,8.67,42.381-5.815l-3.2-4.193s-29.309,6.531-36.293,1.745S516.63,681.738,516.63,681.738Z" transform="translate(-498.509 -633.586)"/><path class="u" d="M558.811,678l.535.7c-15.12,14.492-42.382,5.815-42.382,5.815s-.07-.221-.174-.581C520.041,684.9,544.715,691.538,558.811,678Z" transform="translate(-499.077 -636.21)"/><path class="ag" d="M587.194,674.034s2.233.506,3.262-2.489-2.559-4.315-2.559-4.315-3.739,1.378-3.728,2.844S587.194,674.034,587.194,674.034Z" transform="translate(-527.274 -631.703)"/><path class="u" d="M587.291,674.5s2.233.506,3.262-2.489a2.808,2.808,0,0,0-.262-2.535,2.849,2.849,0,0,1,.617,3c-1.029,3-3.262,2.489-3.262,2.489a15.869,15.869,0,0,1-2.4-2.506A17.352,17.352,0,0,0,587.291,674.5Z" transform="translate(-527.726 -632.645)"/><path class="v" d="M512.5,631.8l-.582,12.212H499.12v-6.484c0-13.02,13.765-17.963,21.516-7.5C520.828,630.314,512.5,631.8,512.5,631.8Z" transform="translate(-491.682 -613.768)"/><path class="u" d="M517.18,624.468a12.968,12.968,0,0,1,9.269,5.623c.192.256-8.141,1.744-8.141,1.744l-.582,12.212h1.745l.581-12.212s8.333-1.489,8.141-1.744C525.071,625.87,520.966,624.183,517.18,624.468Z" transform="translate(-499.24 -613.795)"/><g transform="translate(79.291 7.368)"><line class="ai" x1="9.23" y1="34.911" transform="translate(4.015 4.558)"/><line class="ai" y1="30.277" x2="0.344" transform="translate(76.676 4.011)"/><line class="ai" y1="28.718" x2="42.349" transform="translate(13.617 10.751)"/><line class="ai" x2="28.901" y2="28.557" transform="translate(76.676 34.288)"/><line class="ai" y1="6.342" x2="62.305" transform="translate(13.617 33.5)"/><line class="ai" y1="9.106" x2="73.513" transform="translate(31.883 62.596)"/><path class="aj" d="M-30.709,1.194,12.006,15.271" transform="translate(43.91 39.301)"/><line class="ai" y1="5.849" x2="42.663" transform="translate(76.676 28.041)"/><line class="ak" y1="20.147" x2="20.52" transform="translate(56.891 33.5)"/><line class="ai" x2="18.265" y2="31.118" transform="translate(13.617 40.585)"/><ellipse class="e" cx="9.289" cy="9.289" rx="9.289" ry="9.289" transform="translate(4.003 29.846)"/><ellipse class="e" cx="4.817" cy="4.817" rx="4.817" ry="4.817" transform="translate(51.111 48.425)"/><ellipse class="al" cx="3.096" cy="3.096" rx="3.096" ry="3.096" transform="translate(116.069 25.515)"/><ellipse class="e" cx="4.589" cy="4.589" rx="4.589" ry="4.589" transform="translate(71.915 29.527)"/><ellipse class="am" cx="3.843" cy="3.843" rx="3.843" ry="3.843" transform="translate(27.868 67.688)"/><ellipse class="an" cx="4.962" cy="4.962" rx="4.962" ry="4.962" transform="translate(50.832 5.617)"/><ellipse class="am" cx="2.35" cy="2.35" rx="2.35" ry="2.35" transform="translate(103.054 60.322)"/><ellipse class="ao" cx="3.843" cy="3.843" rx="3.843" ry="3.843" transform="translate(0 0.543)"/><ellipse class="ao" cx="2.723" cy="2.723" rx="2.723" ry="2.723" transform="translate(74.124 0)"/></g></g></g></g></svg>