<svg xmlns="http://www.w3.org/2000/svg" width="492.047" height="377" viewBox="0 0 492.047 377"><defs><style>.a{fill:#f8f8f8;}.b,.f,.q{fill:#646464;}.b,.d,.f,.k,.n{font-size:14px;}.b,.n{font-family:Arial-BoldMT, Arial;font-weight:700;}.c{fill:#f1f9ff;stroke:#7fc4fd;}.d,.j{fill:#2699fb;}.d,.f,.h,.k,.o{font-family:ArialMT, Arial;}.e,.k,.l,.n,.o{fill:#fff;}.e{stroke:#cecece;}.g{fill:#616161;stroke:#3a3a3a;}.h{fill:#dfdfdf;font-size:13px;}.i{font-family:Ubuntu-Regular, Ubuntu;}.m,.p,.s{fill:none;}.m{stroke:#fff;stroke-dasharray:4 4;}.o{font-size:10px;}.p{stroke:#799fe8;}.r{stroke:none;}</style></defs><g transform="translate(-823 -970)"><g transform="translate(893 1235)"><rect class="a" width="300" height="112" rx="4" transform="translate(0 0)"/><text class="b" transform="translate(10 21)"><tspan x="0" y="0">Schedule crawler frequency</tspan></text><g transform="translate(92 32)"><g class="c"><rect class="r" width="74" height="30" rx="15"/><rect class="s" x="0.5" y="0.5" width="73" height="29" rx="14.5"/></g><text class="d" transform="translate(37.286 19.5)"><tspan x="-14.396" y="0">daily</tspan></text></g><g transform="translate(174 32)"><g class="e" transform="translate(0)"><rect class="r" width="74" height="30" rx="15"/><rect class="s" x="0.5" y="0.5" width="73" height="29" rx="14.5"/></g><text class="f" transform="translate(37.428 19.5)"><tspan x="-21.396" y="0">weekly</tspan></text></g><g transform="translate(10 32)"><g class="e" transform="translate(0)"><rect class="r" width="74" height="30" rx="15"/><rect class="s" x="0.5" y="0.5" width="73" height="29" rx="14.5"/></g><text class="f" transform="translate(37.423 19.41)"><tspan x="-19.065" y="0">hourly</tspan></text></g><g transform="translate(10 70)"><g class="e"><rect class="r" width="74" height="30" rx="15"/><rect class="s" x="0.5" y="0.5" width="73" height="29" rx="14.5"/></g><text class="f" transform="translate(36.687 19.244)"><tspan x="-24.51" y="0">monthly</tspan></text></g></g><g transform="translate(823 1117)"><rect class="a" width="300" height="109" rx="4" transform="translate(0 0)"/><text class="b" transform="translate(10 20.992)"><tspan x="0" y="0">Define Extraction Pipeline</tspan></text><g transform="translate(10 32)"><g class="g"><rect class="r" width="279" height="65" rx="4"/><rect class="s" x="0.5" y="0.5" width="278" height="64" rx="3.5"/></g><text class="h" transform="translate(10.992 7.987)"><tspan x="0" y="12">{</tspan><tspan x="0" y="27" xml:space="preserve">    </tspan><tspan class="i" y="27">Your editable code</tspan><tspan x="0" y="42">}</tspan></text></g></g><g transform="translate(1154 1117)"><rect class="a" width="161.048" height="109" rx="4" transform="translate(0 0)"/><text class="b" transform="translate(10 20.992)"><tspan x="0" y="0">Use CSS Selector</tspan></text><g transform="translate(15 55)"><rect class="j" width="131.887" height="30" rx="15"/><text class="k" transform="translate(66.173 19.5)"><tspan x="-47.845" y="0">OPEN PLUGIN</tspan></text></g></g><g transform="translate(10 -7)"><rect class="l" width="102" height="30" rx="15" transform="translate(893 977)"/><text class="f" transform="translate(944 997)"><tspan x="-29.952" y="0">Crawler 1</tspan></text></g><g transform="translate(120 -7)"><rect class="l" width="102" height="30" rx="15" transform="translate(893 977)"/><text class="f" transform="translate(944 997)"><tspan x="-29.952" y="0">Crawler 2</tspan></text></g><g transform="translate(230 -7)"><g class="m" transform="translate(893 977)"><rect class="r" width="54" height="30" rx="15"/><rect class="s" x="0.5" y="0.5" width="53" height="29" rx="14.5"/></g><text class="n" transform="translate(920 997)"><tspan x="-4.088" y="0">+</tspan></text></g><text class="o" transform="translate(1138.5 1175.513)"><tspan x="-4.446" y="0">or</tspan></text><line class="p" x2="300" transform="translate(893 1012)"/><line class="p" y1="32" transform="translate(1139 1125)"/><line class="p" y1="32" transform="translate(1139 1187)"/><g transform="translate(893 1024)"><rect class="a" width="300" height="84" rx="4" transform="translate(0 0)"/><text class="b" transform="translate(10 21)"><tspan x="0" y="0">Enter URL</tspan></text><g transform="translate(10 32)"><g class="e"><rect class="r" width="279" height="40" rx="4"/><rect class="s" x="0.5" y="0.5" width="278" height="39" rx="3.5"/></g><path class="q" d="M5.5,0l-1,1L8.28,4.782H0V6.21H8.28L4.5,9.993l1,1,5.5-5.5Z" transform="translate(251.52 15.258)"/><text class="f" transform="translate(10.992 24.504)"><tspan x="0" y="0">www.voguestreet.com</tspan></text></g></g></g></svg>